<?xml version="1.0" encoding="UTF-8" standalone="no"?>
<!-- Created with Inkscape (http://www.inkscape.org/) -->

<svg
   xmlns:dc="http://purl.org/dc/elements/1.1/"
   xmlns:cc="http://creativecommons.org/ns#"
   xmlns:rdf="http://www.w3.org/1999/02/22-rdf-syntax-ns#"
   xmlns:svg="http://www.w3.org/2000/svg"
   xmlns="http://www.w3.org/2000/svg"
   xmlns:sodipodi="http://sodipodi.sourceforge.net/DTD/sodipodi-0.dtd"
   xmlns:inkscape="http://www.inkscape.org/namespaces/inkscape"
   id="svg2985"
   version="1.1"
   inkscape:version="0.48.4 r9939"
   width="622.24084"
   height="233.20125"
   xml:space="preserve"
   sodipodi:docname="England Fencing Logo.svg"><metadata
     id="metadata2991"><rdf:RDF><cc:Work
         rdf:about=""><dc:format>image/svg+xml</dc:format><dc:type
           rdf:resource="http://purl.org/dc/dcmitype/StillImage" /><dc:title /></cc:Work></rdf:RDF></metadata><defs
     id="defs2989"><clipPath
       clipPathUnits="userSpaceOnUse"
       id="clipPath2999"><path
         d="m 0,595.28 841.89,0 L 841.89,0 0,0 0,595.28 z"
         id="path3001"
         inkscape:connector-curvature="0" /></clipPath></defs><sodipodi:namedview
     pagecolor="#ffffff"
     bordercolor="#666666"
     borderopacity="1"
     objecttolerance="10"
     gridtolerance="10"
     guidetolerance="10"
     inkscape:pageopacity="0"
     inkscape:pageshadow="2"
     inkscape:window-width="1920"
     inkscape:window-height="1027"
     id="namedview2987"
     showgrid="false"
     inkscape:zoom="1.01"
     inkscape:cx="318.41216"
     inkscape:cy="114.03603"
     inkscape:window-x="-8"
     inkscape:window-y="-8"
     inkscape:window-maximized="1"
     inkscape:current-layer="g2993"
     fit-margin-top="5"
     fit-margin-left="5"
     fit-margin-right="5"
     fit-margin-bottom="5" /><g
     id="g2993"
     inkscape:groupmode="layer"
     inkscape:label="England Fencing Logo"
     transform="matrix(1.25,0,0,-1.25,-207.76913,491.21525)"><g
       id="g2995"><g
         id="g2997"
         clip-path="url(#clipPath2999)"><g
           id="g3003"
           transform="translate(387.3867,387.2412)"><path
             d="m 0,0 c -9.477,-0.94 -18.48,-2.399 -26.839,-4.302 -0.623,-7.292 -1.517,-19.348 -1.352,-26.801 0.013,-0.567 -35.659,-1.708 -53,-2.229 -2.441,-3.86 -3.75,-7.917 -3.75,-12.103 0,-4.608 1.584,-9.058 4.521,-13.263 l 52.229,-0.405 c 0,0 0.616,-16.489 1.675,-27.539 8.381,-1.893 17.405,-3.342 26.901,-4.269 l -0.576,31.308 131.502,1.545 c 2.656,4.015 4.081,8.248 4.081,12.623 0,4.516 -1.519,8.881 -4.345,13.011 L -0.191,-31.103 0,0 z"
             style="fill:#ed2131;fill-opacity:1;fill-rule:nonzero;stroke:none"
             id="path3005"
             inkscape:connector-curvature="0" /></g><g
           id="g3007"
           transform="translate(170.2153,250.2783)"><path
             d="m 0,0 0.292,0.292 20.285,0 0.292,-0.292 0,-4.092 -0.292,-0.293 -15.667,0 0,-11.691 13.621,0 0.234,-0.292 -1.053,-4.092 -0.351,-0.292 -12.451,0 0,-13.737 15.725,0 0.234,-0.293 -0.585,-4.092 -0.35,-0.292 -19.642,0 L 0,-38.874 0,0 z"
             style="fill:#ed2131;fill-opacity:1;fill-rule:nonzero;stroke:none"
             id="path3009"
             inkscape:connector-curvature="0" /></g><g
           id="g3011"
           transform="translate(200.2021,249.9854)"><path
             d="m 0,0 0.292,0.352 4.326,0.584 0.409,-0.234 18.94,-28.527 1.52,-2.806 0,30.631 0.292,0.352 4.326,0.584 0.292,-0.234 0,-39.283 -0.292,-0.292 -4.15,0 -0.468,0.292 -19.057,28.761 -1.52,2.805 0,-31.566 -0.292,-0.292 -4.326,0 L 0,-38.581 0,0 z"
             style="fill:#ed2131;fill-opacity:1;fill-rule:nonzero;stroke:none"
             id="path3013"
             inkscape:connector-curvature="0" /></g><g
           id="g3015"
           transform="translate(237.9053,236.6582)"><path
             d="m 0,0 c 0,9.47 6.138,14.497 15.315,14.497 6.431,0 11.575,-2.923 13.68,-8.067 L 28.819,6.079 24.902,4.442 24.493,4.56 C 22.915,7.774 19.524,9.82 15.315,9.82 9.353,9.82 5.027,6.371 5.027,-0.409 l 0,-10.99 c 0,-6.956 4.326,-10.172 10.288,-10.172 6.08,0 10.406,3.216 10.406,10.172 l 0,1.344 -6.722,0 -0.352,0.292 -0.584,4.092 0.234,0.292 12.042,0 0.292,-0.292 0,-6.255 c 0,-9.411 -5.845,-14.321 -15.316,-14.321 C 6.138,-26.247 0,-21.337 0,-11.926 L 0,0 z"
             style="fill:#ed2131;fill-opacity:1;fill-rule:nonzero;stroke:none"
             id="path3017"
             inkscape:connector-curvature="0" /></g><g
           id="g3019"
           transform="translate(276.1943,249.9854)"><path
             d="m 0,0 0.292,0.352 4.326,0.584 0.292,-0.234 0,-34.898 16.836,0 0.233,-0.293 -1.052,-4.092 -0.35,-0.292 -20.285,0 L 0,-38.581 0,0 z"
             style="fill:#ed2131;fill-opacity:1;fill-rule:nonzero;stroke:none"
             id="path3021"
             inkscape:connector-curvature="0" /></g><g
           id="g3023"
           transform="translate(325.8818,225.2588)"><path
             d="M 0,0 -6.08,18.005 -6.664,20.519 -7.249,18.005 -13.328,0 0,0 z m -9.587,24.727 0.351,0.293 4.91,0.642 0.351,-0.233 13.854,-39.283 -0.175,-0.292 -4.677,0 -0.351,0.292 -3.215,9.412 -16.309,0 -3.156,-9.412 -0.293,-0.292 -4.735,0 -0.175,0.292 13.62,38.581 z"
             style="fill:#ed2131;fill-opacity:1;fill-rule:nonzero;stroke:none"
             id="path3025"
             inkscape:connector-curvature="0" /></g><g
           id="g3027"
           transform="translate(343.0674,249.9854)"><path
             d="m 0,0 0.292,0.352 4.326,0.584 0.409,-0.234 18.94,-28.527 1.52,-2.806 0,30.631 0.292,0.352 4.326,0.584 0.292,-0.234 0,-39.283 -0.292,-0.292 -4.15,0 -0.468,0.292 -19.057,28.761 -1.52,2.805 0,-31.566 -0.292,-0.292 -4.326,0 L 0,-38.581 0,0 z"
             style="fill:#ed2131;fill-opacity:1;fill-rule:nonzero;stroke:none"
             id="path3029"
             inkscape:connector-curvature="0" /></g><g
           id="g3031"
           transform="translate(397.7813,215.7891)"><path
             d="m 0,0 c 5.963,0 10.347,3.215 10.347,10.171 l 0,9.704 C 10.347,26.656 5.963,30.104 0,30.104 l -8.476,0 L -8.476,0 0,0 z m -13.386,34.489 0.292,0.292 13.094,0 c 9.178,0 15.374,-5.027 15.374,-14.497 l 0,-10.638 C 15.374,0.233 9.178,-4.677 0,-4.677 l -13.094,0 -0.292,0.292 0,38.874 z"
             style="fill:#ed2131;fill-opacity:1;fill-rule:nonzero;stroke:none"
             id="path3033"
             inkscape:connector-curvature="0" /></g><g
           id="g3035"
           transform="translate(437.2969,250.2783)"><path
             d="m 0,0 0.291,0.292 19.701,0 0.291,-0.292 0,-4.092 -0.291,-0.293 -15.082,0 0,-12.275 14.205,0 0.233,-0.292 -1.051,-4.093 -0.352,-0.292 -13.035,0 0,-17.537 -0.293,-0.292 -4.326,0 L 0,-38.874 0,0 z"
             style="fill:#ed2131;fill-opacity:1;fill-rule:nonzero;stroke:none"
             id="path3037"
             inkscape:connector-curvature="0" /></g><g
           id="g3039"
           transform="translate(465.5293,250.2783)"><path
             d="m 0,0 0.293,0.292 20.283,0 0.293,-0.292 0,-4.092 -0.293,-0.293 -15.666,0 0,-11.691 13.621,0 0.235,-0.292 -1.053,-4.092 -0.352,-0.292 -12.451,0 0,-13.737 15.725,0 0.234,-0.293 -0.584,-4.092 -0.351,-0.292 -19.641,0 L 0,-38.874 0,0 z"
             style="fill:#ed2131;fill-opacity:1;fill-rule:nonzero;stroke:none"
             id="path3041"
             inkscape:connector-curvature="0" /></g><g
           id="g3043"
           transform="translate(495.5176,249.9854)"><path
             d="m 0,0 0.291,0.352 4.326,0.584 0.41,-0.234 18.94,-28.527 1.519,-2.806 0,30.631 0.293,0.352 4.325,0.584 0.292,-0.234 0,-39.283 -0.292,-0.292 -4.151,0 -0.467,0.292 -19.056,28.761 -1.52,2.805 0,-31.566 -0.293,-0.292 -4.326,0 L 0,-38.581 0,0 z"
             style="fill:#ed2131;fill-opacity:1;fill-rule:nonzero;stroke:none"
             id="path3045"
             inkscape:connector-curvature="0" /></g><g
           id="g3047"
           transform="translate(535.5586,236.6582)"><path
             d="m 0,0 c 0,9.47 6.137,14.497 15.314,14.497 6.432,0 11.575,-2.923 13.68,-8.067 L 28.818,6.079 24.902,4.442 24.492,4.56 C 22.914,7.774 19.523,9.82 15.314,9.82 9.354,9.82 5.027,6.371 5.027,-0.409 l 0,-10.99 c 0,-6.956 4.327,-10.172 10.287,-10.172 4.795,0 8.243,1.929 9.879,5.436 l 0.411,0.117 3.798,-1.461 0.176,-0.351 c -1.93,-5.553 -7.072,-8.417 -14.264,-8.417 C 6.137,-26.247 0,-21.337 0,-11.926 L 0,0 z"
             style="fill:#ed2131;fill-opacity:1;fill-rule:nonzero;stroke:none"
             id="path3049"
             inkscape:connector-curvature="0" /></g><g
           id="g3051"
           transform="translate(573.4961,249.9854)"><path
             d="m 0,0 0.291,0.352 4.326,0.584 0.293,-0.234 0,-39.283 -0.293,-0.292 -4.326,0 L 0,-38.581 0,0 z"
             style="fill:#ed2131;fill-opacity:1;fill-rule:nonzero;stroke:none"
             id="path3053"
             inkscape:connector-curvature="0" /></g><g
           id="g3055"
           transform="translate(589.3359,249.9854)"><path
             d="m 0,0 0.293,0.352 4.326,0.584 0.408,-0.234 18.94,-28.527 1.521,-2.806 0,30.631 0.291,0.352 4.326,0.584 0.293,-0.234 0,-39.283 -0.293,-0.292 -4.15,0 -0.467,0.292 -19.058,28.761 -1.52,2.805 0,-31.566 -0.291,-0.292 -4.326,0 L 0,-38.581 0,0 z"
             style="fill:#ed2131;fill-opacity:1;fill-rule:nonzero;stroke:none"
             id="path3057"
             inkscape:connector-curvature="0" /></g><g
           id="g3059"
           transform="translate(629.377,236.6582)"><path
             d="m 0,0 c 0,9.47 6.139,14.497 15.316,14.497 6.43,0 11.575,-2.923 13.678,-8.067 L 28.82,6.079 24.902,4.442 24.494,4.56 C 22.916,7.774 19.525,9.82 15.316,9.82 9.354,9.82 5.027,6.371 5.027,-0.409 l 0,-10.99 c 0,-6.956 4.327,-10.172 10.289,-10.172 6.08,0 10.405,3.216 10.405,10.172 l 0,1.344 -6.723,0 -0.35,0.292 -0.584,4.092 0.233,0.292 12.043,0 0.291,-0.292 0,-6.255 c 0,-9.411 -5.846,-14.321 -15.315,-14.321 C 6.139,-26.247 0,-21.337 0,-11.926 L 0,0 z"
             style="fill:#ed2131;fill-opacity:1;fill-rule:nonzero;stroke:none"
             id="path3061"
             inkscape:connector-curvature="0" /></g><g
           id="g3063"
           transform="translate(522.7783,341.8062)"><path
             d="m 0,0 c 0,-25.774 -49.321,-46.667 -110.166,-46.667 -60.843,0 -110.167,20.893 -110.167,46.667 0,25.772 49.324,46.666 110.167,46.666 C -49.321,46.666 0,25.772 0,0 z"
             style="fill:none;stroke:#a7a9ac;stroke-width:1;stroke-linecap:butt;stroke-linejoin:miter;stroke-miterlimit:4;stroke-opacity:1;stroke-dasharray:none"
             id="path3065"
             inkscape:connector-curvature="0" /></g><g
           id="g3067"
           transform="translate(360.167,344.7803)"><path
             d="m 0,0 c 0,0 -21.625,-0.292 -24.375,-0.375 -0.253,-0.008 0,-3.875 0.375,-3.958 C -21.352,-4.923 0,-4.5 0,-4.5 L 0,0 z"
             style="fill:#ffffff;fill-opacity:1;fill-rule:nonzero;stroke:none"
             id="path3069"
             inkscape:connector-curvature="0" /></g><g
           id="g3071"
           transform="translate(362.8335,352.1138)"><path
             d="m 0,0 c 0,0 -2.333,-16.167 2.167,-23.417 1.451,-2.338 16.75,1.834 20.666,11.084 0.411,0.97 133.334,-0.167 133.334,-0.167 l 0,1.833 L 23,-7.75 C 23.223,-8.792 20.227,3.222 6.75,4.917 4.181,5.24 1.905,5.38 1.333,5 0.833,4.667 0.667,2.833 0.667,2.833 c 0,0 9.794,-0.276 11.5,-2.833 C 12.5,-0.5 0.667,2.5 0,0"
             style="fill:#ffffff;fill-opacity:1;fill-rule:nonzero;stroke:none"
             id="path3073"
             inkscape:connector-curvature="0" /></g></g></g></g></svg>